<svg xmlns="http://www.w3.org/2000/svg" viewBox="0 0 64 64">
  <title>Reelet</title>
  <defs>
    <linearGradient id="teal" gradientUnits="userSpaceOnUse" x1="8" y1="6" x2="52" y2="60">
      <stop stop-color="#3ce1d5"/>
      <stop offset="0.5" stop-color="#26b8b2"/>
      <stop offset="1" stop-color="#146868"/>
    </linearGradient>
  </defs>
  <rect width="64" height="64" rx="13" fill="#2b2b2b"/>
  <path fill="url(#teal)" d="M10 8 5 4c0 7 2 13 6 17C5 27 4 35 5 41c1 13 12 21 27 21s26-8 27-21c1-6 0-14-6-20 4-4 6-10 6-17l-5 4c-7 5-13 7-22 7S17 13 10 8Z"/>
  <path fill="#fcfcfc" d="M32 54c-4-5-11-7-16-10-6-3-9-8-8-14 1-8 8-12 15-10 4 1 7 4 9 8 2-4 5-7 9-8 7-2 14 2 15 10 1 6-2 11-8 14-5 3-12 5-16 10Z"/>
  <circle cx="21" cy="32" r="6" fill="url(#teal)"/>
  <circle cx="43" cy="32" r="6" fill="url(#teal)"/>
  <path d="m32 37-4 6 4 7 4-7-4-6Z" fill="url(#teal)"/>
  <circle cx="23" cy="30" r="1.7" fill="#fff"/>
  <circle cx="45" cy="30" r="1.7" fill="#fff"/>
</svg>
